<svg width="40" height="40" viewBox="0 0 40 40" fill="none" xmlns="http://www.w3.org/2000/svg">
<path d="M39.9359 29.6047C39.884 29.4489 39.8019 29.3049 39.6944 29.1809C39.5868 29.0569 39.4559 28.9553 39.3091 28.8818C39.1622 28.8084 39.0024 28.7646 38.8386 28.753C38.6748 28.7414 38.5104 28.7621 38.3547 28.814L35.6328 29.7219L31.1172 20.6906C31.0134 20.4832 30.8539 20.3087 30.6566 20.1867C30.4593 20.0648 30.2319 20.0001 30 20H17.5V16.25H26.25C26.5815 16.25 26.8994 16.1183 27.1339 15.8839C27.3683 15.6494 27.5 15.3315 27.5 15C27.5 14.6685 27.3683 14.3505 27.1339 14.1161C26.8994 13.8817 26.5815 13.75 26.25 13.75H17.5V12.3437C18.6783 12.0395 19.7052 11.3159 20.3882 10.3087C21.0712 9.3015 21.3635 8.07975 21.2101 6.87248C21.0568 5.66521 20.4684 4.55532 19.5553 3.75083C18.6421 2.94634 17.4669 2.5025 16.25 2.5025C15.033 2.5025 13.8578 2.94634 12.9447 3.75083C12.0316 4.55532 11.4432 5.66521 11.2898 6.87248C11.1365 8.07975 11.4287 9.3015 12.1117 10.3087C12.7947 11.3159 13.8217 12.0395 15 12.3437V14.0328C12.3048 14.6488 9.93075 16.2357 8.33106 18.4906C6.73137 20.7456 6.01802 23.5106 6.32717 26.258C6.63632 29.0053 7.94632 31.5427 10.0071 33.3857C12.0679 35.2287 14.7353 36.2483 17.5 36.25C22.7375 36.25 27.4515 32.7015 28.7109 27.8125C28.752 27.6535 28.7613 27.4879 28.7383 27.3253C28.7154 27.1627 28.6606 27.0062 28.5772 26.8647C28.4938 26.7232 28.3833 26.5996 28.2521 26.5008C28.1209 26.402 27.9715 26.3301 27.8125 26.289C27.6535 26.248 27.4879 26.2387 27.3253 26.2616C27.1627 26.2846 27.0062 26.3393 26.8647 26.4228C26.7232 26.5062 26.5996 26.6167 26.5008 26.7479C26.402 26.8791 26.3301 27.0285 26.289 27.1875C25.3265 30.9375 21.5484 33.75 17.5 33.75C15.3987 33.7493 13.3679 32.9924 11.7787 31.6178C10.1894 30.2432 9.14797 28.3425 8.8446 26.2633C8.54123 24.184 8.99622 22.0651 10.1264 20.2936C11.2566 18.5222 12.9865 17.2167 15 16.6156V21.25C15 21.5815 15.1317 21.8994 15.3661 22.1339C15.6005 22.3683 15.9185 22.5 16.25 22.5H29.2265L33.8812 31.8094C34.0161 32.0783 34.2435 32.2896 34.5216 32.4044C34.7998 32.5192 35.11 32.5299 35.3953 32.4344L39.1453 31.1844C39.4595 31.0795 39.7192 30.8543 39.8674 30.5581C40.0157 30.2619 40.0403 29.919 39.9359 29.6047ZM13.75 7.49998C13.75 7.00553 13.8966 6.52218 14.1713 6.11106C14.446 5.69993 14.8365 5.3795 15.2933 5.19028C15.7501 5.00106 16.2528 4.95156 16.7377 5.04802C17.2227 5.14448 17.6681 5.38258 18.0177 5.73221C18.3674 6.08185 18.6055 6.5273 18.7019 7.01226C18.7984 7.49721 18.7489 7.99988 18.5597 8.45669C18.3705 8.91351 18.05 9.30395 17.6389 9.57866C17.2278 9.85336 16.7444 9.99998 16.25 9.99998C15.5869 9.99998 14.9511 9.73659 14.4822 9.26775C14.0134 8.79891 13.75 8.16302 13.75 7.49998Z" fill="white"/>
</svg>
