<svg width="60" height="40" viewBox="0 0 60 40" fill="none" xmlns="http://www.w3.org/2000/svg">
<path d="M59.06 3C58.7721 2.82031 58.4431 2.71684 58.1042 2.69934C57.7652 2.68185 57.4274 2.7509 57.1225 2.9C46.39 8.15 38.725 5.69 30.6225 3.095C22.1225 0.372504 13.31 -2.44 1.135 3.505C0.794826 3.66818 0.507744 3.92425 0.306908 4.24364C0.106072 4.56303 -0.000325938 4.93272 7.50045e-07 5.31V35.2925C-4.70411e-05 35.6318 0.0862468 35.9656 0.250761 36.2624C0.415275 36.5592 0.6526 36.8092 0.9404 36.989C1.2282 37.1688 1.55701 37.2724 1.89589 37.2901C2.23477 37.3077 2.57257 37.2389 2.8775 37.09C13.61 31.84 21.275 34.3 29.39 36.895C34.2 38.4325 39.1 40 44.64 40C48.9125 40 53.5725 39.07 58.8675 36.485C59.2038 36.3208 59.4873 36.0655 59.6857 35.7482C59.8842 35.4309 59.9896 35.0643 59.99 34.69V4.7075C59.993 4.36729 59.9092 4.03192 59.7465 3.73313C59.5837 3.43435 59.3475 3.18201 59.06 3ZM56 33.4175C45.85 37.96 38.4375 35.59 30.61 33.0875C25.8 31.55 20.9 29.9825 15.36 29.9825C11.4678 30.0014 7.61511 30.7652 4.01 32.2325V6.5825C14.16 2.04 21.5725 4.41 29.4 6.9125C37.2275 9.415 45.285 12 56 7.7725V33.4175ZM30 12C28.4177 12 26.871 12.4692 25.5554 13.3482C24.2398 14.2273 23.2145 15.4767 22.609 16.9385C22.0035 18.4003 21.845 20.0089 22.1537 21.5607C22.4624 23.1126 23.2243 24.538 24.3431 25.6569C25.462 26.7757 26.8874 27.5376 28.4393 27.8463C29.9911 28.155 31.5997 27.9965 33.0615 27.391C34.5233 26.7855 35.7727 25.7602 36.6518 24.4446C37.5308 23.129 38 21.5823 38 20C38 17.8783 37.1571 15.8434 35.6569 14.3431C34.1566 12.8429 32.1217 12 30 12ZM30 24C29.2089 24 28.4355 23.7654 27.7777 23.3259C27.1199 22.8864 26.6072 22.2616 26.3045 21.5307C26.0017 20.7998 25.9225 19.9956 26.0769 19.2196C26.2312 18.4437 26.6122 17.731 27.1716 17.1716C27.731 16.6122 28.4437 16.2312 29.2196 16.0769C29.9956 15.9225 30.7998 16.0017 31.5307 16.3045C32.2616 16.6072 32.8864 17.1199 33.3259 17.7777C33.7654 18.4355 34 19.2089 34 20C34 21.0609 33.5786 22.0783 32.8284 22.8284C32.0783 23.5786 31.0609 24 30 24ZM12 12V24C12 24.5304 11.7893 25.0391 11.4142 25.4142C11.0391 25.7893 10.5304 26 10 26C9.46957 26 8.96086 25.7893 8.58579 25.4142C8.21072 25.0391 8 24.5304 8 24V12C8 11.4696 8.21072 10.9609 8.58579 10.5858C8.96086 10.2107 9.46957 10 10 10C10.5304 10 11.0391 10.2107 11.4142 10.5858C11.7893 10.9609 12 11.4696 12 12ZM48 28V16C48 15.4696 48.2107 14.9609 48.5858 14.5858C48.9609 14.2107 49.4696 14 50 14C50.5304 14 51.0391 14.2107 51.4142 14.5858C51.7893 14.9609 52 15.4696 52 16V28C52 28.5304 51.7893 29.0391 51.4142 29.4142C51.0391 29.7893 50.5304 30 50 30C49.4696 30 48.9609 29.7893 48.5858 29.4142C48.2107 29.0391 48 28.5304 48 28Z" fill="white"/>
</svg>
