<svg width="24" height="24" viewBox="0 0 24 24" fill="none" xmlns="http://www.w3.org/2000/svg">
<path d="M22.5625 11.1146H21.7155C21.5205 8.81875 20.5199 6.66578 18.8906 5.03651C17.2613 3.40723 15.1084 2.40663 12.8125 2.21166V1.36462C12.8125 1.14914 12.7269 0.942473 12.5745 0.7901C12.4222 0.637726 12.2155 0.552124 12 0.552124C11.7845 0.552124 11.5778 0.637726 11.4255 0.7901C11.2731 0.942473 11.1875 1.14914 11.1875 1.36462V2.21166C8.89162 2.40663 6.73866 3.40723 5.10938 5.03651C3.48011 6.66578 2.4795 8.81875 2.28453 11.1146H1.4375C1.22201 11.1146 1.01535 11.2002 0.862976 11.3526C0.710602 11.505 0.625 11.7116 0.625 11.9271C0.625 12.1426 0.710602 12.3493 0.862976 12.5016C1.01535 12.654 1.22201 12.7396 1.4375 12.7396H2.28453C2.4795 15.0355 3.48011 17.1885 5.10938 18.8177C6.73866 20.447 8.89162 21.4476 11.1875 21.6426V22.4896C11.1875 22.7051 11.2731 22.9118 11.4255 23.0641C11.5778 23.2165 11.7845 23.3021 12 23.3021C12.2155 23.3021 12.4222 23.2165 12.5745 23.0641C12.7269 22.9118 12.8125 22.7051 12.8125 22.4896V21.6426C15.1084 21.4476 17.2613 20.447 18.8906 18.8177C20.5199 17.1885 21.5205 15.0355 21.7155 12.7396H22.5625C22.778 12.7396 22.9847 12.654 23.137 12.5016C23.2894 12.3493 23.375 12.1426 23.375 11.9271C23.375 11.7116 23.2894 11.505 23.137 11.3526C22.9847 11.2002 22.778 11.1146 22.5625 11.1146ZM12.8125 20.0115V19.2396C12.8125 19.0241 12.7269 18.8175 12.5745 18.6651C12.4222 18.5127 12.2155 18.4271 12 18.4271C11.7845 18.4271 11.5778 18.5127 11.4255 18.6651C11.2731 18.8175 11.1875 19.0241 11.1875 19.2396V20.0115C9.3237 19.8213 7.58254 18.9941 6.2578 17.6693C4.93305 16.3446 4.1058 14.6034 3.91563 12.7396H4.6875C4.90299 12.7396 5.10965 12.654 5.26202 12.5016C5.4144 12.3493 5.5 12.1426 5.5 11.9271C5.5 11.7116 5.4144 11.505 5.26202 11.3526C5.10965 11.2002 4.90299 11.1146 4.6875 11.1146H3.91563C4.1058 9.25082 4.93305 7.50967 6.2578 6.18492C7.58254 4.86017 9.3237 4.03292 11.1875 3.84275V4.61462C11.1875 4.83011 11.2731 5.03677 11.4255 5.18915C11.5778 5.34152 11.7845 5.42712 12 5.42712C12.2155 5.42712 12.4222 5.34152 12.5745 5.18915C12.7269 5.03677 12.8125 4.83011 12.8125 4.61462V3.84275C14.6763 4.03292 16.4175 4.86017 17.7422 6.18492C19.067 7.50967 19.8942 9.25082 20.0844 11.1146H19.3125C19.097 11.1146 18.8903 11.2002 18.738 11.3526C18.5856 11.505 18.5 11.7116 18.5 11.9271C18.5 12.1426 18.5856 12.3493 18.738 12.5016C18.8903 12.654 19.097 12.7396 19.3125 12.7396H20.0844C19.8942 14.6034 19.067 16.3446 17.7422 17.6693C16.4175 18.9941 14.6763 19.8213 12.8125 20.0115ZM12 7.86462C11.1965 7.86462 10.4111 8.10289 9.743 8.54928C9.07492 8.99567 8.55422 9.63015 8.24674 10.3725C7.93926 11.1148 7.85881 11.9316 8.01556 12.7197C8.17231 13.5077 8.55923 14.2316 9.12738 14.7997C9.69553 15.3679 10.4194 15.7548 11.2074 15.9116C11.9955 16.0683 12.8123 15.9879 13.5547 15.6804C14.297 15.3729 14.9315 14.8522 15.3778 14.1841C15.8242 13.5161 16.0625 12.7306 16.0625 11.9271C16.0625 10.8497 15.6345 9.81637 14.8726 9.0545C14.1108 8.29264 13.0774 7.86462 12 7.86462ZM12 14.3646C11.5179 14.3646 11.0466 14.2217 10.6458 13.9538C10.245 13.686 9.93253 13.3053 9.74804 12.8599C9.56355 12.4145 9.51528 11.9244 9.60934 11.4516C9.70339 10.9788 9.93554 10.5444 10.2764 10.2036C10.6173 9.86266 11.0516 9.63051 11.5245 9.53646C11.9973 9.44241 12.4874 9.49068 12.9328 9.67517C13.3782 9.85966 13.7589 10.1721 14.0267 10.5729C14.2945 10.9738 14.4375 11.445 14.4375 11.9271C14.4375 12.5736 14.1807 13.1936 13.7236 13.6507C13.2665 14.1078 12.6465 14.3646 12 14.3646Z" fill="white"/>
</svg>
