<svg width="26" height="24" viewBox="0 0 26 24" fill="none" xmlns="http://www.w3.org/2000/svg">
<path d="M13 6.75C11.9616 6.75 10.9466 7.05791 10.0832 7.63478C9.21986 8.21166 8.54696 9.0316 8.1496 9.99091C7.75224 10.9502 7.64827 12.0058 7.85084 13.0242C8.05341 14.0426 8.55343 14.9781 9.28765 15.7123C10.0219 16.4465 10.9573 16.9466 11.9757 17.1491C12.9941 17.3517 14.0497 17.2477 15.0091 16.8504C15.9684 16.453 16.7883 15.7801 17.3652 14.9167C17.9421 14.0534 18.25 13.0384 18.25 12C18.2485 10.6081 17.6949 9.27354 16.7107 8.28929C15.7264 7.30504 14.3919 6.75145 13 6.75ZM13 15.5C12.3077 15.5 11.631 15.2947 11.0555 14.9101C10.4799 14.5256 10.0313 13.9789 9.76639 13.3394C9.50148 12.6999 9.43217 11.9961 9.56721 11.3172C9.70226 10.6383 10.0356 10.0146 10.5251 9.52513C11.0146 9.03564 11.6382 8.7023 12.3171 8.56725C12.9961 8.4322 13.6998 8.50151 14.3394 8.76642C14.9789 9.03133 15.5255 9.47993 15.9101 10.0555C16.2947 10.6311 16.5 11.3078 16.5 12C16.5 12.9283 16.1312 13.8185 15.4748 14.4749C14.8185 15.1313 13.9282 15.5 13 15.5ZM25.0247 9.72609C25.0003 9.60288 24.9497 9.48635 24.8763 9.38444C24.8028 9.28252 24.7083 9.19761 24.5992 9.13547L21.3365 7.27609L21.3234 3.59891C21.323 3.47226 21.2951 3.34722 21.2417 3.23241C21.1882 3.11759 21.1105 3.01575 21.0139 2.93391C19.8304 1.93279 18.4675 1.1656 16.9976 0.673124C16.8819 0.633946 16.7592 0.619447 16.6375 0.630562C16.5158 0.641676 16.3978 0.678157 16.2911 0.737656L13 2.57734L9.70559 0.734374C9.59879 0.674541 9.48062 0.637784 9.35872 0.62648C9.23683 0.615176 9.11392 0.629576 8.99793 0.668749C7.52919 1.16483 6.16785 1.93494 4.98606 2.93828C4.88955 3.02 4.81191 3.12167 4.75847 3.23628C4.70504 3.3509 4.67708 3.47573 4.67653 3.60219L4.66012 7.28266L1.39746 9.14203C1.28831 9.20417 1.19381 9.28909 1.1204 9.391C1.04698 9.49291 0.996367 9.60944 0.971995 9.73266C0.673397 11.2332 0.673397 12.7778 0.971995 14.2783C0.996367 14.4015 1.04698 14.518 1.1204 14.6199C1.19381 14.7219 1.28831 14.8068 1.39746 14.8689L4.66012 16.7283L4.67325 20.4055C4.67364 20.5321 4.70152 20.6572 4.75496 20.772C4.80841 20.8868 4.88613 20.9886 4.98278 21.0705C6.16629 22.0716 7.5292 22.8388 8.99903 23.3313C9.11478 23.3704 9.23745 23.3849 9.35914 23.3738C9.48084 23.3627 9.59885 23.3262 9.70559 23.2667L13 21.4227L16.2943 23.2656C16.4247 23.3383 16.5717 23.3759 16.7209 23.375C16.8165 23.375 16.9114 23.3595 17.002 23.3291C18.4706 22.8336 19.8319 22.0643 21.0139 21.0617C21.1104 20.98 21.188 20.8783 21.2415 20.7637C21.2949 20.6491 21.3228 20.5243 21.3234 20.3978L21.3398 16.7173L24.6025 14.858C24.7116 14.7958 24.8061 14.7109 24.8795 14.609C24.9529 14.5071 25.0036 14.3906 25.0279 14.2673C25.3249 12.768 25.3238 11.225 25.0247 9.72609ZM23.384 13.5444L20.2592 15.3217C20.1223 15.3996 20.0089 15.5129 19.9311 15.6498C19.8676 15.7592 19.8009 15.8752 19.7331 15.9845C19.6463 16.1225 19.6 16.282 19.5997 16.445L19.5832 19.9723C18.7433 20.6319 17.8076 21.1594 16.8084 21.5364L13.6562 19.7798C13.5254 19.7074 13.3781 19.6698 13.2286 19.6705H13.2078C13.0754 19.6705 12.942 19.6705 12.8097 19.6705C12.6531 19.6666 12.4984 19.7043 12.3612 19.7798L9.20684 21.5408C8.20552 21.1666 7.26721 20.6418 6.42434 19.9844L6.41231 16.4625C6.41177 16.2992 6.36555 16.1393 6.27887 16.0009C6.21106 15.8916 6.14434 15.7822 6.082 15.6663C6.00469 15.5272 5.89134 15.4116 5.75387 15.3316L2.62575 13.5498C2.46387 12.5259 2.46387 11.4829 2.62575 10.4589L5.74512 8.67828C5.88203 8.60043 5.99539 8.48707 6.07325 8.35016C6.13668 8.24078 6.2034 8.12484 6.27121 8.01547C6.35802 7.87754 6.40426 7.71797 6.40465 7.555L6.42106 4.02766C7.26098 3.36807 8.19672 2.84063 9.1959 2.46359L12.3437 4.22016C12.4807 4.29609 12.6356 4.33387 12.7922 4.32953C12.9245 4.32953 13.0579 4.32953 13.1903 4.32953C13.3468 4.33344 13.5016 4.2957 13.6387 4.22016L16.7931 2.45922C17.7944 2.83336 18.7327 3.35821 19.5756 4.01562L19.5876 7.5375C19.5882 7.70079 19.6344 7.86067 19.7211 7.99906C19.7889 8.10844 19.8556 8.21781 19.9179 8.33375C19.9952 8.47278 20.1086 8.5884 20.2461 8.66844L23.3742 10.4502C23.5382 11.4749 23.5401 12.5191 23.3797 13.5444H23.384Z" fill="white"/>
</svg>
