<svg width="30" height="30" viewBox="0 0 30 30" fill="none" xmlns="http://www.w3.org/2000/svg">
<path d="M14.0625 12.0938V20.625C14.0625 20.8737 14.1613 21.1121 14.3371 21.2879C14.5129 21.4637 14.7514 21.5625 15 21.5625C15.2486 21.5625 15.4871 21.4637 15.6629 21.2879C15.8387 21.1121 15.9375 20.8737 15.9375 20.625V12.0938C17.0757 11.8614 18.087 11.2148 18.7755 10.2792C19.464 9.34353 19.7805 8.18559 19.6638 7.02984C19.547 5.87409 19.0053 4.80286 18.1436 4.02383C17.2819 3.2448 16.1616 2.81348 15 2.81348C13.8384 2.81348 12.7181 3.2448 11.8564 4.02383C10.9947 4.80286 10.453 5.87409 10.3362 7.02984C10.2195 8.18559 10.536 9.34353 11.2245 10.2792C11.913 11.2148 12.9243 11.8614 14.0625 12.0938ZM15 4.68752C15.5563 4.68752 16.1 4.85247 16.5625 5.16151C17.0251 5.47055 17.3855 5.90981 17.5984 6.42372C17.8113 6.93764 17.867 7.50314 17.7585 8.04871C17.6499 8.59428 17.3821 9.09542 16.9887 9.48876C16.5954 9.88209 16.0943 10.15 15.5487 10.2585C15.0031 10.367 14.4376 10.3113 13.9237 10.0984C13.4098 9.88556 12.9705 9.52507 12.6615 9.06256C12.3525 8.60005 12.1875 8.05628 12.1875 7.50002C12.1875 6.7541 12.4838 6.03873 13.0113 5.51128C13.5387 4.98384 14.2541 4.68752 15 4.68752ZM28.125 20.625C28.125 24.2789 21.3621 26.25 15 26.25C8.63789 26.25 1.875 24.2789 1.875 20.625C1.875 19.718 2.32148 18.3832 4.45312 17.1785C5.88984 16.3653 7.86562 15.7406 10.1684 15.3715C10.2902 15.3523 10.4146 15.3572 10.5345 15.3861C10.6544 15.4149 10.7674 15.4671 10.8671 15.5396C10.9669 15.6121 11.0513 15.7036 11.1157 15.8088C11.1801 15.9139 11.2231 16.0308 11.2424 16.1526C11.2616 16.2744 11.2567 16.3988 11.2278 16.5187C11.199 16.6386 11.1468 16.7516 11.0743 16.8513C11.0018 16.9511 10.9103 17.0355 10.8051 17.0999C10.7 17.1643 10.5831 17.2073 10.4613 17.2266C8.40586 17.557 6.59414 18.1207 5.37305 18.8145C4.3418 19.3946 3.75 20.0555 3.75 20.625C3.75 22.1906 8.02969 24.375 15 24.375C21.9703 24.375 26.25 22.1906 26.25 20.625C26.25 20.0555 25.6582 19.3946 24.627 18.8098C23.4012 18.116 21.5941 17.5524 19.5387 17.2219C19.4143 17.2056 19.2944 17.1646 19.1862 17.1012C19.0779 17.0378 18.9835 16.9533 18.9085 16.8527C18.8335 16.7521 18.7795 16.6375 18.7496 16.5157C18.7197 16.3939 18.7146 16.2673 18.7345 16.1434C18.7544 16.0195 18.799 15.9009 18.8656 15.7946C18.9322 15.6883 19.0194 15.5964 19.1222 15.5245C19.2249 15.4525 19.3411 15.4019 19.4638 15.3756C19.5864 15.3493 19.7131 15.3479 19.8363 15.3715C22.1391 15.7406 24.1148 16.3653 25.5516 17.1785C27.6785 18.3832 28.125 19.718 28.125 20.625Z" fill="white"/>
</svg>
