<svg width="34" height="38" viewBox="0 0 34 38" fill="none" xmlns="http://www.w3.org/2000/svg">
<path d="M32 7.75H24.5V1.5C24.5 1.16848 24.3683 0.850537 24.1339 0.616116C23.8995 0.381696 23.5815 0.25 23.25 0.25C22.9185 0.25 22.6005 0.381696 22.3661 0.616116C22.1317 0.850537 22 1.16848 22 1.5V7.75H12V1.5C12 1.16848 11.8683 0.850537 11.6339 0.616116C11.3995 0.381696 11.0815 0.25 10.75 0.25C10.4185 0.25 10.1005 0.381696 9.86612 0.616116C9.6317 0.850537 9.5 1.16848 9.5 1.5V7.75H2.08594C1.10625 7.75 0.75 8.49687 0.75 9C0.75 9.33152 0.881696 9.64946 1.11612 9.88388C1.35054 10.1183 1.66848 10.25 2 10.25H4.5V24C4.5 25.6576 5.15848 27.2473 6.33058 28.4194C7.50269 29.5915 9.0924 30.25 10.75 30.25H15.75V36.5C15.75 36.8315 15.8817 37.1495 16.1161 37.3839C16.3505 37.6183 16.6685 37.75 17 37.75C17.3315 37.75 17.6495 37.6183 17.8839 37.3839C18.1183 37.1495 18.25 36.8315 18.25 36.5V30.25H23.25C24.9076 30.25 26.4973 29.5915 27.6694 28.4194C28.8415 27.2473 29.5 25.6576 29.5 24V10.25H32C32.3315 10.25 32.6495 10.1183 32.8839 9.88388C33.1183 9.64946 33.25 9.33152 33.25 9C33.25 8.66848 33.1183 8.35054 32.8839 8.11612C32.6495 7.8817 32.3315 7.75 32 7.75ZM23.25 27.75H10.75C9.75544 27.75 8.80161 27.3549 8.09835 26.6517C7.39509 25.9484 7 24.9946 7 24V10.25H27V24C27 24.9946 26.6049 25.9484 25.9017 26.6517C25.1984 27.3549 24.2446 27.75 23.25 27.75ZM20.5281 18.2875C20.6431 18.4537 20.7162 18.6452 20.7409 18.8458C20.7657 19.0463 20.7415 19.2499 20.6703 19.4391L18.7953 24.4391C18.6789 24.7499 18.4437 25.0017 18.1416 25.1391C17.8395 25.2765 17.4952 25.2883 17.1844 25.1719C16.8736 25.0554 16.6218 24.8203 16.4843 24.5182C16.3469 24.2161 16.3351 23.8717 16.4516 23.5609L17.7016 20.25H14.5C14.298 20.25 14.099 20.201 13.9201 20.1073C13.7412 20.0136 13.5876 19.8779 13.4726 19.7119C13.3575 19.5459 13.2844 19.3544 13.2596 19.154C13.2347 18.9535 13.2587 18.7501 13.3297 18.5609L15.2047 13.5609C15.3211 13.2501 15.5563 12.9983 15.8584 12.8609C16.1605 12.7235 16.5048 12.7117 16.8156 12.8281C17.1264 12.9446 17.3782 13.1797 17.5157 13.4818C17.6531 13.7839 17.6649 14.1283 17.5484 14.4391L16.2984 17.75H19.5C19.7021 17.7498 19.9011 17.7986 20.0802 17.8922C20.2593 17.9859 20.413 18.1215 20.5281 18.2875Z" fill="white"/>
</svg>
