<svg width="38" height="38" viewBox="0 0 38 38" fill="none" xmlns="http://www.w3.org/2000/svg">
<path d="M22.5625 33.25C22.5625 33.565 22.4374 33.867 22.2147 34.0897C21.992 34.3124 21.69 34.4375 21.375 34.4375H16.625C16.3101 34.4375 16.008 34.3124 15.7853 34.0897C15.5626 33.867 15.4375 33.565 15.4375 33.25C15.4375 32.9351 15.5626 32.633 15.7853 32.4103C16.008 32.1876 16.3101 32.0625 16.625 32.0625H21.375C21.69 32.0625 21.992 32.1876 22.2147 32.4103C22.4374 32.633 22.5625 32.9351 22.5625 33.25ZM19 16.625C19.3523 16.625 19.6967 16.5206 19.9896 16.3248C20.2825 16.1291 20.5109 15.8509 20.6457 15.5254C20.7805 15.1999 20.8158 14.8418 20.747 14.4963C20.6783 14.1507 20.5087 13.8333 20.2595 13.5842C20.0104 13.3351 19.693 13.1655 19.3475 13.0967C19.002 13.028 18.6438 13.0633 18.3184 13.1981C17.9929 13.3329 17.7147 13.5612 17.519 13.8542C17.3232 14.1471 17.2188 14.4915 17.2188 14.8438C17.2188 15.3162 17.4064 15.7693 17.7405 16.1033C18.0745 16.4374 18.5276 16.625 19 16.625ZM33.1936 23.131L31.3589 31.3886C31.2719 31.7807 31.0868 32.1444 30.821 32.4455C30.5552 32.7467 30.2174 32.9755 29.8391 33.1106C29.4608 33.2457 29.0545 33.2826 28.658 33.218C28.2616 33.1533 27.888 32.9892 27.5723 32.7409L23.5288 29.6875H14.4742L10.4277 32.7409C10.112 32.9892 9.73844 33.1533 9.342 33.218C8.94557 33.2826 8.53921 33.2457 8.16093 33.1106C7.78265 32.9755 7.44481 32.7467 7.17902 32.4455C6.91322 32.1444 6.72815 31.7807 6.6411 31.3886L4.80642 23.131C4.72859 22.7767 4.73252 22.4092 4.81791 22.0566C4.9033 21.704 5.06791 21.3755 5.29923 21.096L9.5386 16.0105C9.68089 14.1416 10.11 12.3057 10.8107 10.5673C12.7256 5.76682 16.1545 2.75502 17.5453 1.6833C17.9616 1.36072 18.4734 1.18567 19 1.18567C19.5267 1.18567 20.0384 1.36072 20.4547 1.6833C21.8411 2.75502 25.2745 5.76682 27.1893 10.5673C27.8901 12.3057 28.3191 14.1416 28.4614 16.0105L32.7008 21.096C32.9321 21.3755 33.0967 21.704 33.1821 22.0566C33.2675 22.4092 33.2714 22.7767 33.1936 23.131ZM14.7592 27.3125H23.2409C26.3759 21.7402 26.9622 16.4053 24.9835 11.4475C23.2379 7.07158 19.9634 4.30471 19 3.56252C18.0337 4.30471 14.7592 7.07158 13.0135 11.4475C11.0378 16.4053 11.6242 21.7402 14.7592 27.3125ZM12.5326 28.1809C10.9344 25.2765 9.96462 22.422 9.62321 19.6175L7.12501 22.616L8.9597 30.875L8.98642 30.8557L12.5326 28.1809ZM30.875 22.616L28.3768 19.6175C28.0384 22.4161 27.0706 25.2705 25.4734 28.1809L29.0136 30.8528L29.0403 30.8721L30.875 22.616Z" fill="white"/>
</svg>
