<svg width="19" height="18" viewBox="0 0 19 18" fill="none" xmlns="http://www.w3.org/2000/svg">
<path d="M17.7036 7.33967L10.5161 0.464665C10.2466 0.206998 9.88109 0.0622559 9.50001 0.0622559C9.11892 0.0622559 8.75343 0.206998 8.48388 0.464665L1.29638 7.33967C1.16224 7.46701 1.05592 7.6186 0.983579 7.7856C0.911242 7.95261 0.874336 8.13171 0.875009 8.31248V16.5625C0.875009 16.7448 0.950734 16.9197 1.08553 17.0486C1.22032 17.1775 1.40313 17.25 1.59376 17.25H17.4063C17.5969 17.25 17.7797 17.1775 17.9145 17.0486C18.0493 16.9197 18.125 16.7448 18.125 16.5625V8.31248C18.1257 8.13171 18.0888 7.95261 18.0164 7.7856C17.9441 7.6186 17.8378 7.46701 17.7036 7.33967ZM16.6875 15.875H2.31251V8.31248L9.50001 1.43748L16.6875 8.31248V15.875Z" fill="white"/>
</svg>
