<svg width="26" height="22" viewBox="0 0 26 22" fill="none" xmlns="http://www.w3.org/2000/svg">
<path d="M25.2501 6.65014C25.2062 8.17335 24.5799 9.62174 23.5001 10.697L19.6994 14.5C19.1458 15.0566 18.4873 15.4978 17.7621 15.7982C17.0368 16.0986 16.2592 16.2522 15.4742 16.25H15.4687C14.6703 16.2494 13.8801 16.0889 13.1448 15.7778C12.4095 15.4667 11.744 15.0114 11.1876 14.4388C10.6313 13.8662 10.1953 13.1879 9.90543 12.444C9.61559 11.7 9.47778 10.9056 9.50014 10.1075C9.50666 9.87542 9.60511 9.65545 9.77382 9.49597C9.94253 9.33649 10.1677 9.25056 10.3997 9.25709C10.6318 9.26362 10.8518 9.36207 11.0113 9.53078C11.1707 9.69948 11.2567 9.92464 11.2501 10.1567C11.2342 10.721 11.3315 11.2828 11.5364 11.8088C11.7413 12.3348 12.0495 12.8145 12.4429 13.2194C12.8362 13.6243 13.3068 13.9462 13.8267 14.1662C14.3466 14.3861 14.9053 14.4996 15.4698 14.5C16.0248 14.5014 16.5745 14.3928 17.0872 14.1805C17.5999 13.9682 18.0654 13.6563 18.4569 13.263L22.2576 9.46217C23.0418 8.66812 23.48 7.59606 23.4765 6.48007C23.473 5.36407 23.0281 4.29478 22.239 3.50565C21.4499 2.71652 20.3806 2.27165 19.2646 2.26815C18.1486 2.26466 17.0765 2.70284 16.2825 3.48701L15.0794 4.69014C14.9139 4.84731 14.6936 4.93363 14.4655 4.93071C14.2373 4.92779 14.0193 4.83585 13.858 4.6745C13.6966 4.51315 13.6047 4.29515 13.6018 4.06698C13.5988 3.83882 13.6852 3.61854 13.8423 3.45311L15.0454 2.24998C15.6005 1.69472 16.2596 1.25425 16.9849 0.953729C17.7102 0.653212 18.4877 0.498535 19.2728 0.498535C20.0579 0.498535 20.8354 0.653212 21.5607 0.953729C22.286 1.25425 22.9451 1.69472 23.5001 2.24998C24.0751 2.82634 24.5267 3.51367 24.8276 4.27012C25.1284 5.02658 25.2722 5.83635 25.2501 6.65014ZM10.922 17.3065L9.71889 18.5097C9.32648 18.9047 8.85945 19.2178 8.34497 19.4307C7.83049 19.6436 7.27881 19.7522 6.72201 19.75C5.88672 19.7493 5.07036 19.5011 4.3761 19.0366C3.68183 18.5722 3.14081 17.9124 2.82139 17.1406C2.50197 16.3687 2.41848 15.5196 2.58148 14.7003C2.74448 13.8811 3.14664 13.1286 3.73717 12.5378L7.53139 8.73701C8.129 8.13625 8.89344 7.72906 9.72544 7.56833C10.5574 7.40759 11.4185 7.50075 12.1969 7.83568C12.9753 8.17062 13.635 8.73187 14.0903 9.44654C14.5456 10.1612 14.7755 10.9963 14.7501 11.8433C14.7436 12.0753 14.8295 12.3005 14.989 12.4692C15.1485 12.6379 15.3685 12.7363 15.6005 12.7429C15.8326 12.7494 16.0577 12.6635 16.2265 12.504C16.3952 12.3445 16.4936 12.1245 16.5001 11.8925C16.5211 11.08 16.3769 10.2717 16.076 9.51659C15.7752 8.76152 15.3241 8.07545 14.7501 7.49998C13.6292 6.37957 12.1093 5.75018 10.5244 5.75018C8.93959 5.75018 7.41962 6.37957 6.29873 7.49998L2.50014 11.3008C1.66476 12.1358 1.09567 13.1997 0.864772 14.3581C0.633876 15.5165 0.75154 16.7173 1.20289 17.8088C1.65425 18.9003 2.41904 19.8335 3.40061 20.4905C4.38218 21.1475 5.53648 21.4988 6.71764 21.5C7.50281 21.5022 8.28063 21.3487 9.00607 21.0484C9.73151 20.748 10.3902 20.3067 10.9439 19.75L12.147 18.5469C12.2886 18.3801 12.3626 18.1663 12.3544 17.9476C12.3461 17.729 12.2563 17.5214 12.1025 17.3657C11.9488 17.21 11.7423 17.1176 11.5238 17.1067C11.3052 17.0957 11.0906 17.167 10.922 17.3065Z" fill="white"/>
</svg>
