<svg width="31" height="36" viewBox="0 0 31 36" fill="none" xmlns="http://www.w3.org/2000/svg">
<g filter="url(#filter0_d_5056_3744)">
<path fill-rule="evenodd" clip-rule="evenodd" d="M15.6683 28.3505C16.7508 28.3505 21.9055 22.2031 23.1765 20.2449C25.1304 17.2348 26.3366 15.454 26.3366 12.131C26.3366 6.5358 21.5603 2 15.6683 2C9.77637 2 5 6.5358 5 12.131C5 15.4713 6.11774 17.2402 8.06506 20.2449C9.4223 22.3392 14.5859 28.3505 15.6683 28.3505Z" fill="#FF6200"/>
<path d="M15.6683 28.9265C15.8587 28.9265 16.0318 28.863 16.1606 28.8029C16.2984 28.7386 16.4395 28.6521 16.5786 28.5553C16.8571 28.3614 17.1745 28.0934 17.5108 27.782C18.1859 27.1568 18.9855 26.3115 19.7823 25.4146C21.3715 23.6258 23.0005 21.574 23.6597 20.5585C23.7118 20.4783 23.7634 20.3988 23.8146 20.32C25.6755 17.4555 26.9126 15.5513 26.9126 12.131C26.9126 6.19 21.85 1.424 15.6683 1.424C9.48667 1.424 4.424 6.19 4.424 12.131C4.424 15.6555 5.63234 17.5504 7.58169 20.5582C8.28544 21.6441 9.93992 23.6973 11.5425 25.4694C12.3462 26.3581 13.15 27.1906 13.8276 27.8052C14.1651 28.1113 14.4833 28.3742 14.7623 28.5642C14.9017 28.6591 15.0428 28.7437 15.1804 28.8065C15.3092 28.8652 15.4807 28.9265 15.6683 28.9265Z" stroke="white" stroke-width="1.152"/>
</g>
<defs>
<filter id="filter0_d_5056_3744" x="0.9679" y="0.848022" width="29.4009" height="34.4144" filterUnits="userSpaceOnUse" color-interpolation-filters="sRGB">
<feFlood flood-opacity="0" result="BackgroundImageFix"/>
<feColorMatrix in="SourceAlpha" type="matrix" values="0 0 0 0 0 0 0 0 0 0 0 0 0 0 0 0 0 0 127 0" result="hardAlpha"/>
<feOffset dy="2.88"/>
<feGaussianBlur stdDeviation="1.44"/>
<feColorMatrix type="matrix" values="0 0 0 0 0 0 0 0 0 0 0 0 0 0 0 0 0 0 0.2 0"/>
<feBlend mode="normal" in2="BackgroundImageFix" result="effect1_dropShadow_5056_3744"/>
<feBlend mode="normal" in="SourceGraphic" in2="effect1_dropShadow_5056_3744" result="shape"/>
</filter>
</defs>
</svg>
