<svg width="26" height="25" viewBox="0 0 26 25" fill="none" xmlns="http://www.w3.org/2000/svg">
<path d="M11.25 7.85187C11.25 7.50575 11.3526 7.16741 11.5449 6.87962C11.7372 6.59183 12.0105 6.36753 12.3303 6.23508C12.6501 6.10262 13.0019 6.06797 13.3414 6.13549C13.6809 6.20302 13.9927 6.36969 14.2374 6.61443C14.4822 6.85917 14.6489 7.17099 14.7164 7.51046C14.7839 7.84993 14.7492 8.20179 14.6168 8.52156C14.4843 8.84133 14.26 9.11465 13.9722 9.30694C13.6845 9.49923 13.3461 9.60187 13 9.60187C12.5359 9.60187 12.0908 9.41749 11.7626 9.0893C11.4344 8.76112 11.25 8.316 11.25 7.85187ZM6 7.85187C6 5.99535 6.7375 4.21487 8.05025 2.90212C9.36301 1.58937 11.1435 0.851868 13 0.851868C14.8565 0.851868 16.637 1.58937 17.9497 2.90212C19.2625 4.21487 20 5.99535 20 7.85187C20 14.4089 13.7022 18.0828 13.4375 18.237C13.3053 18.3126 13.1556 18.3524 13.0033 18.3524C12.851 18.3524 12.7013 18.3126 12.5691 18.237C12.2978 18.0828 6 14.4144 6 7.85187ZM7.75 7.85187C7.75 12.4675 11.67 15.5311 13 16.4378C14.3289 15.5322 18.25 12.4675 18.25 7.85187C18.25 6.45948 17.6969 5.12412 16.7123 4.13956C15.7277 3.15499 14.3924 2.60187 13 2.60187C11.6076 2.60187 10.2723 3.15499 9.28769 4.13956C8.30312 5.12412 7.75 6.45948 7.75 7.85187ZM21.178 15.2489C20.9626 15.1778 20.728 15.193 20.5237 15.2914C20.3194 15.3899 20.1613 15.5638 20.0827 15.7766C20.0041 15.9893 20.0112 16.2243 20.1025 16.4319C20.1938 16.6395 20.3621 16.8036 20.572 16.8895C22.3778 17.5578 23.5 18.4525 23.5 19.2269C23.5 20.6881 19.5056 22.7269 13 22.7269C6.49438 22.7269 2.5 20.6881 2.5 19.2269C2.5 18.4525 3.62219 17.5578 5.42797 16.8906C5.63787 16.8047 5.80621 16.6406 5.8975 16.433C5.98879 16.2254 5.9959 15.9904 5.91732 15.7777C5.83874 15.5649 5.68062 15.391 5.47629 15.2925C5.27196 15.1941 5.03739 15.1788 4.82203 15.25C2.19594 16.218 0.75 17.6311 0.75 19.2269C0.75 22.6372 7.06203 24.4769 13 24.4769C18.938 24.4769 25.25 22.6372 25.25 19.2269C25.25 17.6311 23.8041 16.218 21.178 15.2489Z" fill="white"/>
</svg>
