<svg width="22" height="22" viewBox="0 0 22 22" fill="none" xmlns="http://www.w3.org/2000/svg">
<path d="M14.4941 11.6191L10.1191 15.9941C10.0378 16.0754 9.94125 16.1398 9.83503 16.1838C9.72882 16.2278 9.61497 16.2505 9.5 16.2505C9.38503 16.2505 9.27118 16.2278 9.16497 16.1838C9.05875 16.1398 8.96223 16.0754 8.88094 15.9941C8.79964 15.9128 8.73515 15.8163 8.69116 15.71C8.64716 15.6038 8.62451 15.49 8.62451 15.375C8.62451 15.26 8.64716 15.1462 8.69116 15.04C8.73515 14.9337 8.79964 14.8372 8.88094 14.7559L11.763 11.875H1.625C1.39294 11.875 1.17038 11.7828 1.00628 11.6187C0.842187 11.4546 0.75 11.2321 0.75 11C0.75 10.7679 0.842187 10.5454 1.00628 10.3813C1.17038 10.2172 1.39294 10.125 1.625 10.125H11.763L8.88094 7.24406C8.71675 7.07988 8.62451 6.85719 8.62451 6.625C8.62451 6.39281 8.71675 6.17012 8.88094 6.00594C9.04512 5.84175 9.26781 5.74951 9.5 5.74951C9.73219 5.74951 9.95488 5.84175 10.1191 6.00594L14.4941 10.3809C14.5754 10.4622 14.64 10.5587 14.684 10.6649C14.728 10.7712 14.7507 10.885 14.7507 11C14.7507 11.115 14.728 11.2288 14.684 11.3351C14.64 11.4413 14.5754 11.5378 14.4941 11.6191ZM20.875 0.5H13.875C13.6429 0.5 13.4204 0.592187 13.2563 0.756282C13.0922 0.920376 13 1.14294 13 1.375C13 1.60706 13.0922 1.82962 13.2563 1.99372C13.4204 2.15781 13.6429 2.25 13.875 2.25H20V19.75H13.875C13.6429 19.75 13.4204 19.8422 13.2563 20.0063C13.0922 20.1704 13 20.3929 13 20.625C13 20.8571 13.0922 21.0796 13.2563 21.2437C13.4204 21.4078 13.6429 21.5 13.875 21.5H20.875C21.1071 21.5 21.3296 21.4078 21.4937 21.2437C21.6578 21.0796 21.75 20.8571 21.75 20.625V1.375C21.75 1.14294 21.6578 0.920376 21.4937 0.756282C21.3296 0.592187 21.1071 0.5 20.875 0.5Z" fill="white"/>
</svg>
