<svg width="28" height="16" viewBox="0 0 28 16" fill="none" xmlns="http://www.w3.org/2000/svg">
<path d="M16.6251 2.75002C16.6251 2.51796 16.7172 2.2954 16.8813 2.13131C17.0454 1.96721 17.268 1.87502 17.5001 1.87502H27.1251C27.3571 1.87502 27.5797 1.96721 27.7438 2.13131C27.9079 2.2954 28.0001 2.51796 28.0001 2.75002C28.0001 2.98209 27.9079 3.20465 27.7438 3.36874C27.5797 3.53284 27.3571 3.62502 27.1251 3.62502H17.5001C17.268 3.62502 17.0454 3.53284 16.8813 3.36874C16.7172 3.20465 16.6251 2.98209 16.6251 2.75002ZM27.1251 7.12502H17.5001C17.268 7.12502 17.0454 7.21721 16.8813 7.38131C16.7172 7.5454 16.6251 7.76796 16.6251 8.00002C16.6251 8.23209 16.7172 8.45465 16.8813 8.61874C17.0454 8.78284 17.268 8.87502 17.5001 8.87502H27.1251C27.3571 8.87502 27.5797 8.78284 27.7438 8.61874C27.9079 8.45465 28.0001 8.23209 28.0001 8.00002C28.0001 7.76796 27.9079 7.5454 27.7438 7.38131C27.5797 7.21721 27.3571 7.12502 27.1251 7.12502ZM27.1251 12.375H20.1251C19.893 12.375 19.6704 12.4672 19.5063 12.6313C19.3422 12.7954 19.2501 13.018 19.2501 13.25C19.2501 13.4821 19.3422 13.7046 19.5063 13.8687C19.6704 14.0328 19.893 14.125 20.1251 14.125H27.1251C27.3571 14.125 27.5797 14.0328 27.7438 13.8687C27.9079 13.7046 28.0001 13.4821 28.0001 13.25C28.0001 13.018 27.9079 12.7954 27.7438 12.6313C27.5797 12.4672 27.3571 12.375 27.1251 12.375ZM16.5977 14.7813C16.6263 14.8926 16.6327 15.0085 16.6165 15.1222C16.6003 15.236 16.5619 15.3455 16.5034 15.4444C16.4449 15.5434 16.3675 15.6298 16.2756 15.6988C16.1837 15.7678 16.079 15.818 15.9677 15.8466C15.8964 15.8658 15.8228 15.8754 15.749 15.875C15.5549 15.8751 15.3663 15.8107 15.2129 15.6919C15.0594 15.5731 14.9498 15.4067 14.9013 15.2188C14.2276 12.6003 11.5829 10.625 8.74896 10.625C5.91506 10.625 3.27037 12.5992 2.59662 15.2188C2.5386 15.4436 2.39366 15.6361 2.19367 15.7541C1.99368 15.872 1.75503 15.9057 1.53021 15.8477C1.3054 15.7897 1.11284 15.6447 0.994902 15.4447C0.876959 15.2447 0.843292 15.0061 0.901308 14.7813C1.51271 12.4067 3.29006 10.4839 5.54537 9.53127C4.67697 8.8624 4.0397 7.9385 3.72295 6.88913C3.40619 5.83976 3.42584 4.71756 3.77912 3.67992C4.13241 2.64228 4.80162 1.74124 5.6929 1.10317C6.58419 0.465102 7.65283 0.122009 8.74896 0.122009C9.8451 0.122009 10.9137 0.465102 11.805 1.10317C12.6963 1.74124 13.3655 2.64228 13.7188 3.67992C14.0721 4.71756 14.0917 5.83976 13.775 6.88913C13.4582 7.9385 12.821 8.8624 11.9526 9.53127C14.209 10.4839 15.9863 12.4067 16.5977 14.7813ZM8.75006 8.87502C9.44229 8.87502 10.119 8.66975 10.6946 8.28517C11.2701 7.90058 11.7187 7.35396 11.9836 6.71442C12.2485 6.07488 12.3179 5.37114 12.1828 4.69221C12.0478 4.01328 11.7144 3.38963 11.2249 2.90015C10.7354 2.41067 10.1118 2.07732 9.43287 1.94228C8.75394 1.80723 8.05021 1.87654 7.41067 2.14145C6.77112 2.40635 6.2245 2.85496 5.83991 3.43053C5.45533 4.0061 5.25006 4.68279 5.25006 5.37502C5.25006 6.30328 5.61881 7.19352 6.27518 7.8499C6.93156 8.50628 7.8218 8.87502 8.75006 8.87502Z" fill="white"/>
</svg>
