<svg width="26" height="18" viewBox="0 0 26 18" fill="none" xmlns="http://www.w3.org/2000/svg">
<path d="M23.5 0.25H2.5C2.03587 0.25 1.59075 0.434374 1.26256 0.762563C0.934374 1.09075 0.75 1.53587 0.75 2V16C0.75 16.4641 0.934374 16.9092 1.26256 17.2374C1.59075 17.5656 2.03587 17.75 2.5 17.75H23.5C23.9641 17.75 24.4092 17.5656 24.7374 17.2374C25.0656 16.9092 25.25 16.4641 25.25 16V2C25.25 1.53587 25.0656 1.09075 24.7374 0.762563C24.4092 0.434374 23.9641 0.25 23.5 0.25ZM23.5 2V4.625H2.5V2H23.5ZM23.5 16H2.5V6.375H23.5V16ZM21.75 13.375C21.75 13.6071 21.6578 13.8296 21.4937 13.9937C21.3296 14.1578 21.1071 14.25 20.875 14.25H17.375C17.1429 14.25 16.9204 14.1578 16.7563 13.9937C16.5922 13.8296 16.5 13.6071 16.5 13.375C16.5 13.1429 16.5922 12.9204 16.7563 12.7563C16.9204 12.5922 17.1429 12.5 17.375 12.5H20.875C21.1071 12.5 21.3296 12.5922 21.4937 12.7563C21.6578 12.9204 21.75 13.1429 21.75 13.375ZM14.75 13.375C14.75 13.6071 14.6578 13.8296 14.4937 13.9937C14.3296 14.1578 14.1071 14.25 13.875 14.25H12.125C11.8929 14.25 11.6704 14.1578 11.5063 13.9937C11.3422 13.8296 11.25 13.6071 11.25 13.375C11.25 13.1429 11.3422 12.9204 11.5063 12.7563C11.6704 12.5922 11.8929 12.5 12.125 12.5H13.875C14.1071 12.5 14.3296 12.5922 14.4937 12.7563C14.6578 12.9204 14.75 13.1429 14.75 13.375Z" fill="white"/>
</svg>
