<svg width="40" height="54" viewBox="0 0 40 54" fill="none" xmlns="http://www.w3.org/2000/svg">
<path d="M38.7439 4.03125C38.093 2.91141 37.1254 2.00921 35.9627 1.43829C34.8001 0.867359 33.4945 0.653239 32.2105 0.822896C30.9264 0.992553 29.7212 1.5384 28.7468 2.39168C27.7723 3.24496 27.0722 4.36752 26.7345 5.61797L23.6876 16.943L20.6525 5.61797C20.4568 4.75688 20.0893 3.94414 19.5721 3.22843C19.0549 2.51272 18.3985 1.90875 17.6424 1.4527C16.8862 0.996646 16.0458 0.697893 15.1714 0.57433C14.2971 0.450767 13.4068 0.504936 12.5538 0.733593C11.7009 0.96225 10.9029 1.36069 10.2076 1.90505C9.51231 2.44942 8.93403 3.1285 8.50739 3.90165C8.08075 4.67479 7.81454 5.52608 7.72469 6.40454C7.63484 7.283 7.72321 8.17056 7.9845 9.01406L10.1829 17.2172L8.13684 16.8234C6.73799 16.5356 5.28341 16.7119 3.99385 17.3256C2.70428 17.9394 1.65013 18.957 0.991367 20.2242C0.332604 21.4913 0.105192 22.9388 0.343643 24.3469C0.582093 25.755 1.27339 27.0469 2.31262 28.0266C1.65664 28.6418 1.13484 29.386 0.779928 30.2124C0.425015 31.0388 0.244644 31.9295 0.250121 32.8289V34.5C0.250121 39.4728 2.22556 44.2419 5.74187 47.7583C9.25818 51.2746 14.0273 53.25 19.0001 53.25H19.1431C29.404 53.1727 37.7501 44.6672 37.7501 34.2891V33.5062C37.7483 30.5968 36.7777 27.7708 34.9915 25.4742L39.3907 9.01406C39.6181 8.18204 39.678 7.31315 39.5669 6.45779C39.4559 5.60244 39.1761 4.77765 38.7439 4.03125ZM11.8775 5.90625C12.1552 5.42326 12.5702 5.03365 13.0697 4.78683C13.5692 4.54002 14.1307 4.44713 14.6831 4.51995C15.2355 4.59276 15.7538 4.828 16.1723 5.19582C16.5908 5.56364 16.8906 6.04747 17.0337 6.58594L20.4954 19.5117C19.3213 19.5835 18.188 19.9697 17.2142 20.6297C17.2031 20.6086 17.1905 20.5882 17.1767 20.5688C16.4773 19.5075 15.4813 18.6753 14.3126 18.1758L11.5986 8.04375C11.5014 7.68672 11.4761 7.31397 11.5239 6.94707C11.5718 6.58017 11.692 6.22641 11.8775 5.90625ZM4.05871 22.6875C4.13291 22.3238 4.27838 21.9783 4.48674 21.6711C4.6951 21.3638 4.96222 21.1009 5.27271 20.8974C5.58319 20.6939 5.93089 20.5538 6.29575 20.4854C6.66061 20.4169 7.03542 20.4213 7.39856 20.4984L12.2525 21.4359C12.6145 21.5097 12.9584 21.6541 13.2645 21.8609C13.5707 22.0676 13.8331 22.3327 14.0369 22.6408C14.2406 22.949 14.3816 23.2943 14.4518 23.657C14.5221 24.0197 14.5202 24.3927 14.4462 24.7547C14.372 25.1184 14.2265 25.4639 14.0182 25.7711C13.8098 26.0784 13.5427 26.3413 13.2322 26.5448C12.9217 26.7483 12.574 26.8884 12.2092 26.9568C11.8443 27.0253 11.4695 27.0208 11.1064 26.9438L6.24309 26.0063C5.51424 25.855 4.87505 25.4211 4.4656 24.7994C4.05614 24.1778 3.90983 23.4192 4.05871 22.6898V22.6875ZM4.05871 32.2313C4.20758 31.5076 4.63522 30.8716 5.2492 30.4606C5.86319 30.0497 6.61421 29.8969 7.33996 30.0352L9.7095 30.5039C10.4401 30.653 11.0816 31.0861 11.4929 31.708C11.9043 32.3298 12.0519 33.0896 11.9032 33.8203C11.8292 34.1831 11.6843 34.5276 11.4769 34.8342C11.2694 35.1409 11.0034 35.4035 10.6942 35.6071C10.385 35.8107 10.0387 35.9512 9.67501 36.0207C9.31137 36.0901 8.93759 36.0871 8.57512 36.0117L6.23137 35.543C5.50116 35.3929 4.86041 34.959 4.44994 34.3367C4.03947 33.7144 3.89285 32.9546 4.04231 32.2242L4.05871 32.2313ZM34.0001 34.2891C34.0001 42.6164 27.3228 49.4391 19.1173 49.5C15.9063 49.5228 12.7726 48.5159 10.1759 46.627C7.57918 44.7381 5.65623 42.0667 4.68918 39.0047C4.95647 39.0948 5.22881 39.1692 5.50481 39.2273L7.84856 39.6961C8.28131 39.7842 8.72177 39.829 9.1634 39.8297C10.3184 39.8294 11.4529 39.5242 12.4523 38.9451C13.4516 38.3659 14.2804 37.5333 14.8549 36.5312C15.4294 35.5292 15.7292 34.3933 15.7241 33.2383C15.719 32.0833 15.4092 30.9501 14.8259 29.9531C15.0111 29.8523 15.1939 29.7445 15.3697 29.625L15.4072 29.6859C15.8811 30.4072 16.4934 31.0272 17.2088 31.51C17.9241 31.9928 18.7282 32.3287 19.5743 32.4984L21.0556 32.7938C20.7749 34.1489 20.8318 35.5522 21.2213 36.8802C21.6108 38.2081 22.321 39.4198 23.2892 40.4086C23.6405 40.7494 24.1112 40.9393 24.6007 40.9378C25.0901 40.9362 25.5596 40.7433 25.9088 40.4003C26.2579 40.0572 26.4591 39.5913 26.4693 39.1019C26.4795 38.6125 26.298 38.1386 25.9634 37.7812C25.2625 37.0661 24.809 36.1453 24.6694 35.1537C24.5298 34.1622 24.7114 33.152 25.1876 32.2711C25.3276 32.0131 25.4051 31.7258 25.4138 31.4323C25.4225 31.1389 25.3622 30.8475 25.2377 30.5816C25.1132 30.3157 24.928 30.0828 24.6971 29.9016C24.4661 29.7204 24.1958 29.5959 23.9079 29.5383L20.3126 28.8187C19.5825 28.6691 18.9416 28.2358 18.5307 27.614C18.1198 26.9922 17.9725 26.2327 18.1212 25.5023C18.1953 25.1401 18.34 24.796 18.5472 24.4897C18.7543 24.1834 19.0198 23.921 19.3285 23.7175C19.6372 23.514 19.983 23.3733 20.3461 23.3035C20.7092 23.2338 21.0825 23.2363 21.4447 23.3109L26.4626 24.3141C28.5859 24.743 30.4958 25.8921 31.8692 27.5671C33.2427 29.2421 33.9955 31.3401 34.0001 33.5062V34.2891ZM35.779 8.03906L31.8837 22.5703C30.4636 21.6223 28.8709 20.9629 27.1962 20.6297L26.6103 20.5125L30.3439 6.58828C30.4351 6.2268 30.5972 5.88705 30.8209 5.5888C31.0446 5.29055 31.3253 5.03974 31.6468 4.85096C31.9683 4.66219 32.3241 4.53921 32.6935 4.48918C33.0629 4.43915 33.4386 4.46307 33.7987 4.55954C34.1589 4.65601 34.4962 4.82312 34.7911 5.05114C35.0861 5.27916 35.3328 5.56354 35.5168 5.88775C35.7009 6.21196 35.8186 6.56953 35.8632 6.93966C35.9078 7.30979 35.8784 7.68509 35.7767 8.04375L35.779 8.03906Z" fill="white"/>
</svg>
