<svg width="36" height="32" viewBox="0 0 36 32" fill="none" xmlns="http://www.w3.org/2000/svg">
<path d="M35.4547 16.5313L32.889 2.78126C32.8264 2.4461 32.6958 2.1273 32.5053 1.84448C32.3148 1.56166 32.0685 1.32078 31.7815 1.13667C31.4946 0.95256 31.1729 0.829104 30.8365 0.773894C30.5 0.718685 30.1558 0.73289 29.825 0.815635L29.7765 0.829697L21.5703 3.25001H14.4297L6.22342 0.83751L6.17498 0.823447C5.8442 0.740702 5.49999 0.726498 5.16351 0.781707C4.82703 0.836916 4.50541 0.960372 4.21841 1.14448C3.93142 1.32859 3.68512 1.56947 3.49466 1.85229C3.3042 2.13512 3.17361 2.45391 3.11092 2.78907L0.545293 16.5313C0.43558 17.0816 0.517019 17.6529 0.77614 18.1507C1.03526 18.6485 1.45654 19.0429 1.97029 19.2688C2.29931 19.4196 2.65677 19.4985 3.01873 19.5C3.45197 19.4998 3.8772 19.3832 4.24998 19.1625V25.75C4.24998 27.4076 4.90846 28.9973 6.08056 30.1694C7.25267 31.3415 8.84238 32 10.5 32H25.5C27.1576 32 28.7473 31.3415 29.9194 30.1694C31.0915 28.9973 31.75 27.4076 31.75 25.75V19.1641C32.1224 19.3844 32.547 19.5009 32.9797 19.5016C33.342 19.5005 33.7 19.4222 34.0297 19.2719C34.544 19.046 34.9658 18.651 35.2249 18.1526C35.4841 17.6541 35.5652 17.0821 35.4547 16.5313ZM2.99998 17L5.56717 3.25001L12.1406 5.18282L2.99998 17ZM25.5 29.5H19.25V27.5172L21.3844 25.3844C21.6189 25.1498 21.7507 24.8317 21.7507 24.5C21.7507 24.1683 21.6189 23.8502 21.3844 23.6156C21.1498 23.3811 20.8317 23.2493 20.5 23.2493C20.1683 23.2493 19.8502 23.3811 19.6156 23.6156L18 25.2328L16.3844 23.6156C16.1498 23.3811 15.8317 23.2493 15.5 23.2493C15.1683 23.2493 14.8502 23.3811 14.6156 23.6156C14.3811 23.8502 14.2493 24.1683 14.2493 24.5C14.2493 24.8317 14.3811 25.1498 14.6156 25.3844L16.75 27.5172V29.5H10.5C9.50542 29.5 8.55159 29.1049 7.84833 28.4017C7.14507 27.6984 6.74998 26.7446 6.74998 25.75V16.2359L14.8625 5.75001H21.1359L29.25 16.2359V25.75C29.25 26.7446 28.8549 27.6984 28.1516 28.4017C27.4484 29.1049 26.4945 29.5 25.5 29.5ZM33 17L23.8594 5.18282L30.4328 3.25001L33 17ZM14.25 18.875C14.25 19.2458 14.14 19.6084 13.934 19.9167C13.728 20.225 13.4351 20.4654 13.0925 20.6073C12.7499 20.7492 12.3729 20.7863 12.0092 20.714C11.6455 20.6416 11.3114 20.4631 11.0492 20.2008C10.7869 19.9386 10.6084 19.6045 10.536 19.2408C10.4637 18.8771 10.5008 18.5001 10.6427 18.1575C10.7846 17.8149 11.0249 17.522 11.3333 17.316C11.6416 17.11 12.0041 17 12.375 17C12.8723 17 13.3492 17.1976 13.7008 17.5492C14.0524 17.9008 14.25 18.3777 14.25 18.875ZM25.5 18.875C25.5 19.2458 25.39 19.6084 25.184 19.9167C24.978 20.225 24.6851 20.4654 24.3425 20.6073C23.9999 20.7492 23.6229 20.7863 23.2592 20.714C22.8955 20.6416 22.5614 20.4631 22.2992 20.2008C22.0369 19.9386 21.8584 19.6045 21.786 19.2408C21.7137 18.8771 21.7508 18.5001 21.8927 18.1575C22.0346 17.8149 22.2749 17.522 22.5833 17.316C22.8916 17.11 23.2541 17 23.625 17C24.1223 17 24.5992 17.1976 24.9508 17.5492C25.3024 17.9008 25.5 18.3777 25.5 18.875Z" fill="white"/>
</svg>
