<svg width="38" height="32" viewBox="0 0 38 32" fill="none" xmlns="http://www.w3.org/2000/svg">
<path d="M37.4375 10.4266L28.6875 0.426562C28.5705 0.292942 28.4264 0.185786 28.2647 0.112233C28.1031 0.0386805 27.9276 0.000419911 27.75 0H10.25C10.0724 0.000419911 9.89692 0.0386805 9.73527 0.112233C9.57361 0.185786 9.42949 0.292942 9.31249 0.426562L0.562492 10.4266C0.358363 10.6596 0.248057 10.9602 0.252965 11.27C0.257873 11.5797 0.377645 11.8766 0.589055 12.1031L18.0891 30.8531C18.206 30.9785 18.3475 31.0785 18.5048 31.1469C18.662 31.2152 18.8317 31.2505 19.0031 31.2505C19.1746 31.2505 19.3442 31.2152 19.5015 31.1469C19.6587 31.0785 19.8002 30.9785 19.9172 30.8531L37.4172 12.1031C37.6277 11.8759 37.7464 11.5785 37.7501 11.2688C37.7539 10.959 37.6425 10.6589 37.4375 10.4266ZM33.7453 10H27.125L21.5 2.5H27.1828L33.7453 10ZM10.6531 12.5L15.3609 24.2703L4.37655 12.5H10.6531ZM24.6531 12.5L19 26.6344L13.3469 12.5H24.6531ZM14 10L19 3.33281L24 10H14ZM27.3469 12.5H33.6234L22.6391 24.2703L27.3469 12.5ZM10.8172 2.5H16.5L10.875 10H4.25468L10.8172 2.5Z" fill="white"/>
</svg>
