<svg width="28" height="22" viewBox="0 0 28 22" fill="none" xmlns="http://www.w3.org/2000/svg">
<path d="M5.89749 0.786575C5.82065 0.699957 5.72738 0.629452 5.62309 0.579145C5.5188 0.528839 5.40556 0.499732 5.28994 0.493512C5.17432 0.487292 5.05861 0.504082 4.94952 0.542909C4.84044 0.581736 4.74014 0.641828 4.65445 0.719702C4.56876 0.797576 4.49938 0.891683 4.45033 0.996569C4.40128 1.10146 4.37353 1.21503 4.3687 1.33072C4.36386 1.44641 4.38204 1.56191 4.42217 1.67052C4.4623 1.77913 4.52359 1.8787 4.60249 1.96345L6.70686 4.27892C2.73436 6.71689 1.02593 10.475 0.950458 10.6456C0.900707 10.7575 0.875 10.8786 0.875 11.0011C0.875 11.1236 0.900707 11.2447 0.950458 11.3566C0.98874 11.443 1.91515 13.497 3.97468 15.5566C6.7189 18.2997 10.185 19.75 14 19.75C15.9607 19.7612 17.9015 19.3575 19.6951 18.5655L22.1014 21.2134C22.1782 21.3001 22.2715 21.3706 22.3758 21.4209C22.4801 21.4712 22.5933 21.5003 22.7089 21.5065C22.8246 21.5127 22.9403 21.4959 23.0494 21.4571C23.1584 21.4183 23.2587 21.3582 23.3444 21.2803C23.4301 21.2024 23.4995 21.1083 23.5486 21.0035C23.5976 20.8986 23.6254 20.785 23.6302 20.6693C23.635 20.5536 23.6168 20.4381 23.5767 20.3295C23.5366 20.2209 23.4753 20.1213 23.3964 20.0366L5.89749 0.786575ZM11.0742 9.08157L15.6319 14.0964C14.9455 14.4575 14.1587 14.5804 13.395 14.4458C12.6312 14.3112 11.9338 13.9268 11.4122 13.3529C10.8906 12.779 10.5744 12.0481 10.5132 11.275C10.4521 10.5019 10.6494 9.73037 11.0742 9.08157ZM14 18C10.6334 18 7.69233 16.7761 5.25765 14.3633C4.2583 13.3701 3.40835 12.2373 2.73436 11C3.24733 10.0386 4.88468 7.34798 7.91327 5.59907L9.88202 7.75923C9.11983 8.73541 8.72728 9.94961 8.77376 11.1872C8.82024 12.4248 9.30276 13.6062 10.136 14.5224C10.9693 15.4387 12.0997 16.0309 13.3273 16.1943C14.555 16.3577 15.8009 16.0819 16.8448 15.4155L18.4559 17.1874C17.034 17.7329 15.5229 18.0085 14 18ZM14.6562 7.56236C14.4282 7.51884 14.2269 7.38654 14.0964 7.19455C13.9659 7.00256 13.9171 6.76661 13.9606 6.53861C14.0041 6.3106 14.1364 6.10922 14.3284 5.97877C14.5204 5.84831 14.7564 5.79947 14.9844 5.84298C16.0996 6.05918 17.115 6.6301 17.8792 7.47058C18.6434 8.31105 19.1154 9.37606 19.2248 10.5067C19.2464 10.7378 19.1754 10.9679 19.0273 11.1466C18.8792 11.3253 18.6662 11.4378 18.4351 11.4594C18.4078 11.461 18.3804 11.461 18.3531 11.4594C18.1344 11.4603 17.9233 11.3793 17.7613 11.2324C17.5994 11.0854 17.4983 10.8831 17.4781 10.6653C17.4045 9.91326 17.0901 9.20504 16.5816 8.64598C16.0732 8.08692 15.398 7.70688 14.6562 7.56236ZM27.0462 11.3566C27.0003 11.4594 25.8923 13.9127 23.3975 16.1472C23.3122 16.226 23.2122 16.287 23.1031 16.3267C22.994 16.3665 22.8782 16.3841 22.7622 16.3786C22.6463 16.3731 22.5326 16.3446 22.4277 16.2948C22.3229 16.2449 22.2291 16.1747 22.1517 16.0882C22.0742 16.0017 22.0148 15.9007 21.9768 15.791C21.9388 15.6813 21.923 15.5652 21.9304 15.4493C21.9377 15.3335 21.968 15.2202 22.0195 15.1162C22.071 15.0122 22.1428 14.9195 22.2305 14.8434C23.4544 13.7438 24.4826 12.4442 25.2711 11C24.5956 9.76164 23.7438 8.62798 22.7423 7.63454C20.3076 5.22392 17.3666 4.00001 14 4.00001C13.2906 3.99915 12.5824 4.05658 11.8825 4.17173C11.7687 4.19186 11.652 4.18924 11.5392 4.16401C11.4264 4.13879 11.3197 4.09147 11.2253 4.02478C11.1309 3.95809 11.0506 3.87335 10.9891 3.77547C10.9277 3.67758 10.8862 3.56849 10.8671 3.45448C10.848 3.34048 10.8517 3.22382 10.878 3.11126C10.9043 2.99869 10.9526 2.89245 11.0201 2.79866C11.0877 2.70487 11.1732 2.6254 11.2716 2.56483C11.3701 2.50427 11.4796 2.46381 11.5937 2.44579C12.3891 2.31447 13.1939 2.24899 14 2.25001C17.815 2.25001 21.2811 3.70032 24.0253 6.44454C26.0848 8.50407 27.0112 10.5592 27.0495 10.6456C27.0993 10.7575 27.125 10.8786 27.125 11.0011C27.125 11.1236 27.0993 11.2447 27.0495 11.3566H27.0462Z" fill="white"/>
</svg>
