<svg width="18" height="18" viewBox="0 0 18 18" fill="none" xmlns="http://www.w3.org/2000/svg">
<path d="M17.8447 16.2188C16.5359 13.956 14.5189 12.3335 12.1651 11.5644C13.3294 10.8713 14.234 9.81512 14.74 8.55812C15.2459 7.30113 15.3253 5.9128 14.9659 4.60634C14.6064 3.29988 13.8281 2.14753 12.7503 1.32625C11.6726 0.504973 10.355 0.0601807 9.00002 0.0601807C7.64502 0.0601807 6.32747 0.504973 5.24973 1.32625C4.17198 2.14753 3.39362 3.29988 3.03419 4.60634C2.67475 5.9128 2.75411 7.30113 3.26007 8.55812C3.76604 9.81512 4.67063 10.8713 5.83494 11.5644C3.48111 12.3327 1.46416 13.9552 0.155332 16.2188C0.107334 16.297 0.0754984 16.3841 0.0617016 16.4749C0.0479048 16.5656 0.0524269 16.6583 0.0750009 16.7472C0.0975748 16.8362 0.137744 16.9198 0.193137 16.993C0.24853 17.0662 0.318026 17.1276 0.397525 17.1735C0.477023 17.2194 0.564914 17.249 0.65601 17.2604C0.747107 17.2718 0.839564 17.2648 0.927928 17.2399C1.01629 17.215 1.09877 17.1726 1.1705 17.1153C1.24223 17.058 1.30176 16.9869 1.34557 16.9063C2.96463 14.1081 5.82635 12.4375 9.00002 12.4375C12.1737 12.4375 15.0354 14.1081 16.6545 16.9063C16.6983 16.9869 16.7578 17.058 16.8295 17.1153C16.9013 17.1726 16.9837 17.215 17.0721 17.2399C17.1605 17.2648 17.2529 17.2718 17.344 17.2604C17.4351 17.249 17.523 17.2194 17.6025 17.1735C17.682 17.1276 17.7515 17.0662 17.8069 16.993C17.8623 16.9198 17.9025 16.8362 17.925 16.7472C17.9476 16.6583 17.9521 16.5656 17.9383 16.4749C17.9245 16.3841 17.8927 16.297 17.8447 16.2188ZM4.18752 6.25002C4.18752 5.2982 4.46977 4.36775 4.99857 3.57634C5.52738 2.78493 6.27899 2.16809 7.15835 1.80385C8.03772 1.4396 9.00536 1.3443 9.93889 1.52999C10.8724 1.71568 11.7299 2.17403 12.403 2.84707C13.076 3.52011 13.5344 4.37761 13.72 5.31115C13.9057 6.24468 13.8104 7.21231 13.4462 8.09168C13.0819 8.97105 12.4651 9.72266 11.6737 10.2515C10.8823 10.7803 9.95184 11.0625 9.00002 11.0625C7.72408 11.0612 6.5008 10.5537 5.59858 9.65146C4.69635 8.74924 4.18888 7.52595 4.18752 6.25002Z" fill="white"/>
</svg>
