<svg width="19" height="18" viewBox="0 0 19 18" fill="none" xmlns="http://www.w3.org/2000/svg">
<path d="M18.625 2.81246V6.93746C18.625 7.1198 18.5526 7.29466 18.4237 7.4236C18.2947 7.55253 18.1199 7.62496 17.9375 7.62496H13.8125C13.6302 7.62496 13.4553 7.55253 13.3264 7.4236C13.1975 7.29466 13.125 7.1198 13.125 6.93746C13.125 6.75512 13.1975 6.58026 13.3264 6.45132C13.4553 6.32239 13.6302 6.24996 13.8125 6.24996H16.1672L13.8821 4.15652L13.8607 4.1359C12.9051 3.18069 11.6892 2.52823 10.365 2.26001C9.04079 1.99179 7.66689 2.1197 6.41494 2.62778C5.16298 3.13586 4.08849 4.00156 3.32569 5.11676C2.56289 6.23195 2.1456 7.54718 2.12594 8.89816C2.10629 10.2491 2.48514 11.576 3.21517 12.7129C3.94521 13.8498 4.99406 14.7464 6.2307 15.2907C7.46733 15.8349 8.83694 16.0028 10.1684 15.7732C11.4999 15.5436 12.7342 14.9268 13.7171 13.9998C13.8497 13.8744 14.0266 13.8069 14.2089 13.812C14.3913 13.817 14.5642 13.8943 14.6895 14.0269C14.8149 14.1594 14.8824 14.3363 14.8774 14.5187C14.8723 14.701 14.795 14.8739 14.6624 14.9993C13.134 16.4488 11.1065 17.2547 9.00003 17.25H8.88659C7.53543 17.2315 6.20949 16.8813 5.02533 16.2304C3.84117 15.5794 2.83503 14.6476 2.09534 13.5167C1.35566 12.3859 0.905076 11.0906 0.783199 9.74483C0.661322 8.39904 0.871882 7.04393 1.39637 5.79858C1.92086 4.55323 2.74322 3.45578 3.79117 2.60268C4.83913 1.74958 6.08059 1.16696 7.40645 0.906016C8.7323 0.645073 10.102 0.713801 11.395 1.10616C12.6881 1.49852 13.865 2.20249 14.8223 3.15621L17.25 5.3734V2.81246C17.25 2.63012 17.3225 2.45525 17.4514 2.32632C17.5803 2.19739 17.7552 2.12496 17.9375 2.12496C18.1199 2.12496 18.2947 2.19739 18.4237 2.32632C18.5526 2.45525 18.625 2.63012 18.625 2.81246Z" fill="white"/>
</svg>
