<svg width="24" height="24" viewBox="0 0 24 24" fill="none" xmlns="http://www.w3.org/2000/svg">
<path d="M12 0.625C10.0362 0.624572 8.10565 1.1326 6.39638 2.09963C4.68711 3.06665 3.25731 4.45974 2.24617 6.1433C1.23502 7.82685 0.676974 9.74351 0.626341 11.7067C0.575707 13.6699 1.03421 15.6128 1.95723 17.3463L0.715823 21.0705C0.612993 21.3788 0.59807 21.7097 0.672727 22.026C0.747383 22.3424 0.908668 22.6317 1.1385 22.8615C1.36834 23.0914 1.65765 23.2527 1.97399 23.3273C2.29034 23.402 2.62123 23.387 2.92957 23.2842L6.65379 22.0428C8.17932 22.8542 9.86965 23.3074 11.5965 23.368C13.3233 23.4286 15.0412 23.095 16.6199 22.3925C18.1985 21.69 19.5964 20.6372 20.7074 19.3138C21.8184 17.9904 22.6133 16.4313 23.0317 14.7549C23.4502 13.0784 23.4813 11.3287 23.1225 9.63841C22.7638 7.94817 22.0247 6.36187 20.9614 4.99991C19.8981 3.63795 18.5384 2.53613 16.9857 1.77809C15.433 1.02005 13.7279 0.625709 12 0.625ZM12 21.625C10.308 21.6262 8.64562 21.1806 7.18098 20.3333C7.07374 20.2711 6.95452 20.2324 6.8312 20.2198C6.70788 20.2071 6.58329 20.2208 6.46567 20.26L2.37504 21.625L3.73895 17.5344C3.77826 17.4168 3.79216 17.2923 3.77971 17.169C3.76727 17.0456 3.72877 16.9264 3.66676 16.8191C2.60579 14.9847 2.17982 12.8516 2.45492 10.7505C2.73002 8.64934 3.69082 6.69774 5.18826 5.1984C6.68571 3.69906 8.6361 2.7358 10.7369 2.45804C12.8376 2.18029 14.9713 2.60357 16.807 3.66222C18.6427 4.72087 20.0776 6.35571 20.8893 8.31314C21.701 10.2706 21.8441 12.4411 21.2963 14.4882C20.7485 16.5352 19.5405 18.3442 17.8596 19.6346C16.1788 20.925 14.1191 21.6247 12 21.625Z" fill="white"/>
</svg>
