<svg width="24" height="24" viewBox="0 0 24 24" fill="none" xmlns="http://www.w3.org/2000/svg">
<path d="M11.9996 0.625C10.0357 0.624572 8.10517 1.1326 6.39589 2.09963C4.68662 3.06665 3.25682 4.45974 2.24568 6.1433C1.23453 7.82685 0.676486 9.74351 0.625852 11.7067C0.575219 13.6699 1.03372 15.6128 1.95674 17.3463L0.715334 21.0705C0.612505 21.3788 0.597582 21.7097 0.672238 22.026C0.746894 22.3424 0.908179 22.6317 1.13802 22.8615C1.36785 23.0914 1.65716 23.2527 1.9735 23.3273C2.28985 23.402 2.62074 23.387 2.92908 23.2842L6.6533 22.0428C8.17883 22.8542 9.86916 23.3074 11.596 23.368C13.3228 23.4286 15.0408 23.095 16.6194 22.3925C18.1981 21.69 19.5959 20.6372 20.7069 19.3138C21.8179 17.9904 22.6128 16.4313 23.0313 14.7549C23.4497 13.0784 23.4808 11.3287 23.122 9.63841C22.7633 7.94817 22.0242 6.36187 20.9609 4.99991C19.8976 3.63795 18.5379 2.53613 16.9852 1.77809C15.4325 1.02005 13.7274 0.625709 11.9996 0.625ZM11.9996 21.625C10.3075 21.6262 8.64513 21.1806 7.18049 20.3333C7.07326 20.2711 6.95403 20.2324 6.83071 20.2198C6.70739 20.2071 6.5828 20.2208 6.46518 20.26L2.37455 21.625L3.73846 17.5344C3.77778 17.4168 3.79167 17.2923 3.77923 17.169C3.76678 17.0456 3.72828 16.9264 3.66627 16.8191C2.6053 14.9847 2.17933 12.8516 2.45443 10.7505C2.72953 8.64934 3.69033 6.69774 5.18777 5.1984C6.68522 3.69906 8.63561 2.7358 10.7364 2.45804C12.8371 2.18029 14.9709 2.60357 16.8065 3.66222C18.6422 4.72087 20.0771 6.35571 20.8889 8.31314C21.7006 10.2706 21.8436 12.4411 21.2958 14.4882C20.748 16.5352 19.54 18.3442 17.8592 19.6346C16.1783 20.925 14.1186 21.6247 11.9996 21.625Z" fill="white"/>
</svg>
