<svg width="84" height="84" viewBox="0 0 84 84" fill="none" xmlns="http://www.w3.org/2000/svg">
<path d="M75.3572 25.4822L33.3572 67.4822C33.1134 67.7262 32.8239 67.9199 32.5052 68.052C32.1865 68.1841 31.845 68.2521 31.5 68.2521C31.155 68.2521 30.8134 68.1841 30.4948 68.052C30.1761 67.9199 29.8866 67.7262 29.6428 67.4822L11.2678 49.1072C10.7753 48.6146 10.4985 47.9466 10.4985 47.25C10.4985 46.5534 10.7753 45.8854 11.2678 45.3928C11.7604 44.9002 12.4284 44.6235 13.125 44.6235C13.8216 44.6235 14.4896 44.9002 14.9822 45.3928L31.5 61.9139L71.6428 21.7678C72.1354 21.2752 72.8034 20.9985 73.5 20.9985C74.1966 20.9985 74.8646 21.2752 75.3572 21.7678C75.8497 22.2604 76.1265 22.9284 76.1265 23.625C76.1265 24.3216 75.8497 24.9896 75.3572 25.4822Z" fill="white"/>
</svg>
