<svg width="37" height="28" viewBox="0 0 37 28" fill="none" xmlns="http://www.w3.org/2000/svg">
<path d="M33.0938 19.4047L25.125 17.6094L7.88438 0.365626C7.76496 0.246263 7.62261 0.152329 7.46589 0.0894912C7.30918 0.0266533 7.14137 -0.00378559 6.97257 1.08907e-05C6.80377 0.00380737 6.63749 0.0417606 6.48377 0.111581C6.33004 0.181401 6.19205 0.28164 6.07812 0.406251C2.64219 4.1625 0.75 8.90625 0.75 13.75V25C0.75 25.663 1.01339 26.2989 1.48223 26.7678C1.95107 27.2366 2.58696 27.5 3.25 27.5H8.25C8.91304 27.5 9.54893 27.2366 10.0178 26.7678C10.4866 26.2989 10.75 25.663 10.75 25V17.3531C11.1391 17.5797 11.5219 17.8219 11.8969 18.0781C14.7343 20.0255 16.9375 22.7632 18.2328 25.9516C18.42 26.4118 18.7408 26.8053 19.1538 27.0813C19.5669 27.3573 20.0532 27.5032 20.55 27.5H34.5C35.163 27.5 35.7989 27.2366 36.2678 26.7678C36.7366 26.2989 37 25.663 37 25V24.2609C37.0029 23.1267 36.6166 22.0258 35.9057 21.142C35.1948 20.2582 34.2022 19.645 33.0938 19.4047ZM8.25 25H3.25V15.0453C4.96258 15.1664 6.64766 15.5413 8.25 16.1578V25ZM34.5 25H20.5437C19.0643 21.3643 16.5506 18.2427 13.3141 16.0219C10.3522 13.9743 6.88875 12.7719 3.29531 12.5438C3.57716 9.08516 4.89305 5.79137 7.07187 3.09063L23.6156 19.6344C23.7831 19.8012 23.9943 19.9171 24.225 19.9688L32.5437 21.8438C33.0985 21.9618 33.5957 22.2671 33.9519 22.7083C34.3081 23.1496 34.5017 23.7001 34.5 24.2672V25Z" fill="white"/>
</svg>
