<svg width="40" height="40" viewBox="0 0 40 40" fill="none" xmlns="http://www.w3.org/2000/svg">
<path d="M38.25 23.5C38.1187 23.5985 37.9692 23.6701 37.8102 23.7109C37.6512 23.7516 37.4857 23.7606 37.3232 23.7374C37.1607 23.7142 37.0044 23.6592 36.8631 23.5756C36.7219 23.492 36.5985 23.3813 36.5 23.25C35.7466 22.2373 34.7659 21.4156 33.6369 20.8511C32.5079 20.2866 31.2622 19.9951 30 20C29.7542 20 29.5138 19.9275 29.309 19.7916C29.1042 19.6557 28.944 19.4624 28.8484 19.2359C28.7835 19.0821 28.7501 18.9169 28.7501 18.75C28.7501 18.5831 28.7835 18.4178 28.8484 18.2641C28.944 18.0376 29.1042 17.8443 29.309 17.7084C29.5138 17.5725 29.7542 17.5 30 17.5C30.7013 17.4999 31.3886 17.3032 31.9838 16.9321C32.5789 16.561 33.0581 16.0304 33.3668 15.4007C33.6755 14.7709 33.8015 14.0672 33.7303 13.3695C33.6591 12.6717 33.3937 12.0079 32.9642 11.4535C32.5347 10.899 31.9583 10.4761 31.3005 10.2328C30.6426 9.98954 29.9298 9.93561 29.2428 10.0772C28.5559 10.2187 27.9225 10.5501 27.4144 11.0336C26.9063 11.5171 26.5441 12.1334 26.3687 12.8125C26.3277 12.9715 26.2557 13.1209 26.157 13.2521C26.0582 13.3833 25.9346 13.4938 25.7931 13.5772C25.6516 13.6607 25.4951 13.7154 25.3325 13.7383C25.1699 13.7613 25.0043 13.752 24.8453 13.7109C24.6863 13.6699 24.5369 13.5979 24.4057 13.4992C24.2745 13.4004 24.164 13.2767 24.0806 13.1353C23.9971 12.9938 23.9424 12.8373 23.9194 12.6747C23.8965 12.5121 23.9058 12.3465 23.9469 12.1875C24.1902 11.2458 24.65 10.3739 25.2897 9.64117C25.9293 8.90844 26.7311 8.33511 27.6313 7.96679C28.5315 7.59848 29.5052 7.44534 30.475 7.51957C31.4448 7.59381 32.3839 7.89335 33.2176 8.39439C34.0513 8.89542 34.7565 9.58411 35.2771 10.4056C35.7978 11.2272 36.1195 12.1589 36.2168 13.1267C36.314 14.0944 36.184 15.0715 35.8371 15.9802C35.4902 16.8889 34.9361 17.7041 34.2187 18.3609C35.9184 19.0969 37.396 20.2647 38.5047 21.7484C38.6032 21.8801 38.6747 22.0299 38.7152 22.1892C38.7557 22.3486 38.7644 22.5143 38.7407 22.6771C38.7171 22.8398 38.6615 22.9962 38.5773 23.1374C38.4931 23.2786 38.3819 23.4018 38.25 23.5ZM29.8312 33.125C29.9217 33.2673 29.9824 33.4264 30.0098 33.5927C30.0371 33.7591 30.0306 33.9292 29.9904 34.093C29.9503 34.2567 29.8775 34.4107 29.7764 34.5455C29.6752 34.6804 29.5478 34.7934 29.4019 34.8778C29.2559 34.9622 29.0944 35.0161 28.9271 35.0365C28.7597 35.0568 28.59 35.0431 28.4281 34.9961C28.2662 34.9491 28.1154 34.8699 27.9849 34.7631C27.8544 34.6564 27.7469 34.5244 27.6687 34.375C26.8813 33.0417 25.7599 31.9367 24.415 31.1691C23.0702 30.4014 21.5485 29.9977 20 29.9977C18.4515 29.9977 16.9298 30.4014 15.5849 31.1691C14.2401 31.9367 13.1187 33.0417 12.3312 34.375C12.2531 34.5244 12.1455 34.6564 12.015 34.7631C11.8846 34.8699 11.7338 34.9491 11.5719 34.9961C11.41 35.0431 11.2403 35.0568 11.0729 35.0365C10.9055 35.0161 10.744 34.9622 10.5981 34.8778C10.4521 34.7934 10.3247 34.6804 10.2236 34.5455C10.1224 34.4107 10.0496 34.2567 10.0095 34.093C9.96941 33.9292 9.96284 33.7591 9.9902 33.5927C10.0176 33.4264 10.0783 33.2673 10.1687 33.125C11.3806 31.0428 13.2284 29.4042 15.4406 28.45C14.1958 27.4969 13.281 26.1777 12.8247 24.6779C12.3684 23.178 12.3936 21.5728 12.8967 20.088C13.3999 18.6031 14.3557 17.3133 15.6298 16.3998C16.9039 15.4863 18.4322 14.995 20 14.995C21.5677 14.995 23.0961 15.4863 24.3702 16.3998C25.6443 17.3133 26.6001 18.6031 27.1032 20.088C27.6064 21.5728 27.6316 23.178 27.1753 24.6779C26.719 26.1777 25.8042 27.4969 24.5594 28.45C26.7716 29.4042 28.6194 31.0428 29.8312 33.125ZM20 27.5C20.9889 27.5 21.9556 27.2067 22.7778 26.6573C23.6001 26.1079 24.2409 25.327 24.6194 24.4134C24.9978 23.4998 25.0968 22.4944 24.9039 21.5245C24.711 20.5546 24.2348 19.6637 23.5355 18.9645C22.8363 18.2652 21.9453 17.789 20.9754 17.5961C20.0055 17.4031 19.0002 17.5022 18.0866 17.8806C17.1729 18.259 16.392 18.8999 15.8426 19.7221C15.2932 20.5444 15 21.5111 15 22.5C15 23.8261 15.5268 25.0978 16.4645 26.0355C17.4021 26.9732 18.6739 27.5 20 27.5ZM11.25 18.75C11.25 18.4185 11.1183 18.1005 10.8839 17.8661C10.6494 17.6317 10.3315 17.5 9.99998 17.5C9.29862 17.4999 8.61133 17.3032 8.01619 16.9321C7.42104 16.561 6.94189 16.0304 6.63316 15.4007C6.32443 14.7709 6.1985 14.0672 6.26967 13.3695C6.34084 12.6717 6.60626 12.0079 7.03578 11.4535C7.4653 10.899 8.0417 10.4761 8.69952 10.2328C9.35733 9.98954 10.0702 9.93561 10.7571 10.0772C11.4441 10.2187 12.0775 10.5501 12.5856 11.0336C13.0936 11.5171 13.4559 12.1334 13.6312 12.8125C13.7141 13.1337 13.9212 13.4087 14.2069 13.5772C14.4926 13.7457 14.8335 13.7938 15.1547 13.7109C15.4758 13.6281 15.7509 13.421 15.9194 13.1353C16.0879 12.8496 16.136 12.5087 16.0531 12.1875C15.8097 11.2458 15.3499 10.3739 14.7103 9.64117C14.0707 8.90844 13.2689 8.33511 12.3687 7.96679C11.4685 7.59848 10.4947 7.44534 9.52492 7.51957C8.55512 7.59381 7.61603 7.89335 6.78237 8.39439C5.94871 8.89542 5.24349 9.58411 4.72283 10.4056C4.20217 11.2272 3.88043 12.1589 3.78322 13.1267C3.68601 14.0944 3.816 15.0715 4.16287 15.9802C4.50973 16.8889 5.06388 17.7041 5.78124 18.3609C4.08324 19.0976 2.60735 20.2653 1.49999 21.7484C1.30087 22.0136 1.21526 22.3471 1.262 22.6754C1.30873 23.0038 1.48399 23.3001 1.7492 23.4992C2.01442 23.6983 2.34787 23.7839 2.67621 23.7372C3.00455 23.6905 3.30087 23.5152 3.49999 23.25C4.2534 22.2373 5.23407 21.4156 6.36304 20.8511C7.49202 20.2866 8.73776 19.9951 9.99998 20C10.3315 20 10.6494 19.8683 10.8839 19.6339C11.1183 19.3995 11.25 19.0815 11.25 18.75Z" fill="white"/>
</svg>
