<?xml version="1.0" encoding="UTF-8"?>
<svg id="Layer_1" data-name="Layer 1" xmlns="http://www.w3.org/2000/svg" viewBox="0 0 1546.67 835">
  <defs>
    <style>
      .cls-1 {
        fill: #fff;
      }

      .cls-2 {
        fill: #d3770c;
      }
    </style>
  </defs>
  <path class="cls-2" d="m550.15,506.95c-5.03,8.49-10.49,17.09-16.25,25.58-57.04,84.4-228.57,295.26-228.57,295.26,0,0-171.53-210.85-228.68-295.26C-35.65,366.45-20.44,202.78,95.41,86.92,153.4,28.94,229.41,0,305.32,0s151.93,28.94,209.81,86.92c5.45,5.45,10.69,11.01,15.73,16.78h-225.53c-111.35,0-201.63,90.28-201.63,201.63s90.28,201.63,201.63,201.63h244.82Z"/>
  <g>
    <path class="cls-1" d="m387.09,287.34l103.96-111.72h-80.34l-78.07,84.66v84.12l10.78-11.26,71.14,96.2h80l-107.46-142Zm-139.87,142h68.67v-253.72h-68.67v253.72Z"/>
    <path class="cls-1" d="m512.88,175.62v253.72h61.66v-253.72h-61.66Z"/>
    <path class="cls-1" d="m699.93,232.69c-64.13,0-91.26,30.28-92.97,66.26h57.75c1.79-17.99,12.36-26.09,34.88-26.09,16.96,0,25.06,6.32,25.06,17.99,0,15.52-25.06,22.18-50.4,27.12-46.14,9.13-75.05,25.75-75.05,63.45,0,31.31,23.21,53.56,64.82,53.56,26.09,0,50.06-8.1,62-25.06v19.43h59.95v-113.85c0-62.35-30.35-82.81-86.04-82.81Zm24.72,128.27c0,17.65-12.7,33.85-39.14,33.85-15.18,0-24.65-6.39-24.65-21.49,0-12.02,8.1-21.49,32.41-26.78,14.08-2.82,23.62-4.94,31.38-8.1v22.52Z"/>
    <path class="cls-1" d="m911.35,312.34c-30.28-5.97-42.64-10.92-42.64-24.31,0-9.54,8.86-15.18,26.44-15.18,19.71,0,28.22,8.1,30.28,23.28h57.47c-1.79-33.17-26.78-63.45-89.54-63.45-55.28,0-86.31,26.09-86.31,60.29,0,39.07,37.01,53.9,70.52,60.91,31.31,6.73,49.65,8.86,49.65,24.72,0,10.92-9.89,16.2-26.78,16.2-24.31,0-37.35-9.2-39.07-27.53h-57.82c1.79,38.11,28.91,67.7,99.02,67.7,54.59,0,85.97-21.49,85.97-60.63,0-42.64-38.38-54.25-77.18-62.01Z"/>
    <path class="cls-1" d="m1110.07,312.34c-30.28-5.97-42.64-10.92-42.64-24.31,0-9.54,8.86-15.18,26.44-15.18,19.71,0,28.22,8.1,30.28,23.28h57.47c-1.79-33.17-26.78-63.45-89.54-63.45-55.28,0-86.31,26.09-86.31,60.29,0,39.07,37.01,53.9,70.52,60.91,31.31,6.73,49.65,8.86,49.65,24.72,0,10.92-9.89,16.2-26.78,16.2-24.31,0-37.35-9.2-39.07-27.53h-57.82c1.79,38.11,28.91,67.7,99.02,67.7,54.59,0,85.97-21.49,85.97-60.63,0-42.64-38.38-54.25-77.18-62.01Z"/>
  </g>
  <g>
    <path class="cls-1" d="m574.57,827.87v-320.92h151.55c73.1,0,115,34.77,115,94.49,0,37.89-20.5,65.52-56.16,77.56,46.8,15.15,53.04,70.87,53.04,106.97,0,23.18,3.12,28.53,7.58,28.53v13.37h-86.03c-7.13-4.46-7.58-19.17-8.02-35.21-.89-32.99-2.68-74.43-45.47-74.43h-45.91v109.65h-85.58Zm85.58-180.52h50.37c31.2,0,45.46-11.15,45.46-34.77s-14.26-34.77-45.46-34.77h-50.37v69.53Z"/>
    <path class="cls-1" d="m890.14,827.87v-242.92h78v242.92h-78Z"/>
    <path class="cls-1" d="m999.33,708.41c0-78,42.34-129.26,108.32-129.26,36.55,0,63.74,18.72,73.1,35.66v-107.87h78v320.92h-78v-24.51c-12.48,17.38-35.66,31.64-73.1,31.64-65.97,0-108.32-49.03-108.32-126.59Zm180.08-1.78c0-46.35-19.61-71.76-51.26-71.76s-50.81,25.41-50.81,71.76,19.17,73.1,50.81,73.1,51.26-26.74,51.26-73.1Z"/>
    <path class="cls-1" d="m1289.49,705.29c0-72.21,49.03-126.14,128.37-126.14,85.13,0,128.82,58.83,128.82,145.31h-179.18c0,32.99,25.41,55.27,53.49,55.27s39.22-12.03,44.13-23.18h77.55c-13.81,47.25-52.59,78.45-120.34,78.45-82.46,0-132.83-56.16-132.83-129.71Zm179.18-25.85c0-32.54-20.94-49.48-50.81-49.48s-50.37,16.94-50.37,49.48h101.18Z"/>
  </g>
  <path class="cls-2" d="m885.73,515.32c0-23.18,19.61-41.9,44.13-42.34,24.07-.45,43.68,19.17,43.68,42.34s-19.61,43.68-43.68,43.24c-24.52-.45-44.13-19.17-44.13-43.24Z"/>
</svg>